# xmcd CD database file
#
# Track frame offsets:
#	150
#	22410
#	46210
#	70430
#	92983
#	112543
#	134028
#	157378
#	185370
#	207218
#
# Disc length: 3001 seconds
#
# Revision: 0
# Processed by: cddbd v1.5.1PL2 Copyright (c) Steve Scherf et al.
# Submitted via: CDex 1.51
#
DISCID=950bb70a
DTITLE=Various Artist - MINITECA REMIX- VOLUMEN 1
DYEAR=1900
DGENRE=Merengue
TTITLE0=EL PRESO
TTITLE1=MI MUJER ES CELOSA
TTITLE2=SOBRE LAS OLAS
TTITLE3=SALI A PAPA YE MAMA
TTITLE4=EL CARRETERO
TTITLE5=LUPITA
TTITLE6=HAGLE PAPITO
TTITLE7=TU AMIGO TU AMANTE
TTITLE8=CUMBIA UNIVERSAL
TTITLE9=LA CASA DE YAGUA
EXTD=
EXTT0=
EXTT1=
EXTT2=
EXTT3=
EXTT4=
EXTT5=
EXTT6=
EXTT7=
EXTT8=
EXTT9=
PLAYORDER=
